<svg width="360" height="523" viewBox="0 0 360 523" fill="none" xmlns="http://www.w3.org/2000/svg">
<g clip-path="url(#clip0_5077_2779)">
<path d="M900 392.522H-541V692.731H900V392.522Z" fill="#1F4C48"/>
<g clip-path="url(#clip1_5077_2779)">
</g>
<g clip-path="url(#clip2_5077_2779)">
<path opacity="0.4" d="M-157.484 396.655C-164.238 368.211 -159.165 332.741 -148.155 311.149C-137.145 289.556 -121.827 280.738 -106.921 278.171C-92.0159 275.604 -77.0054 278.554 -62.0626 276.917C-3.74712 270.515 48.5342 195.531 106.429 179.282C132.608 171.935 159.536 176.971 184.716 193.917C227.578 222.767 265.022 285.196 309.303 301.707C336.164 311.719 363.835 304.049 390.899 311.014C417.963 317.978 446.76 342.423 457.043 396.273L-157.484 396.655Z" fill="#01A991"/>
</g>
<g opacity="0.2" clip-path="url(#clip3_5077_2779)">
<path opacity="0.4" d="M342.363 365.845C335.608 347.787 340.682 325.271 351.692 311.567C362.702 297.862 378.02 292.271 392.925 290.642C407.831 289.014 422.841 290.883 437.784 289.839C496.099 285.779 548.381 238.188 606.276 227.876C632.454 223.216 659.383 226.375 684.563 237.168C727.425 255.473 764.868 295.1 809.149 305.578C836.01 311.935 863.682 307.079 890.746 311.484C917.81 315.89 946.607 331.418 956.889 365.597L342.363 365.845Z" fill="#01A991"/>
<path opacity="0.4" d="M-609.297 397.119C-616.052 375.031 -610.979 347.494 -599.968 330.728C-588.958 313.961 -573.64 307.116 -558.735 305.12C-543.829 303.123 -528.819 305.42 -513.876 304.144C-455.561 299.176 -403.279 240.958 -345.384 228.341C-319.206 222.637 -292.277 226.548 -267.097 239.704C-224.235 262.1 -186.792 310.576 -142.511 323.395C-115.65 331.17 -87.9781 325.219 -60.9144 330.622C-33.8506 336.026 -5.0531 355.007 5.229 396.818L-609.297 397.119Z" fill="#01A991"/>
</g>
<g clip-path="url(#clip4_5077_2779)">
<path opacity="0.88" d="M289.159 396.973C281.113 375.786 257.727 357.398 227.564 348.527C197.025 339.558 162.336 340.271 128.945 339.573C95.5546 338.875 59.8973 335.82 34.6648 321.313C17.4028 311.383 7.1582 297.236 -7.07916 285.37C-41.4605 256.715 -101.45 242.666 -155.412 250.629C-206.38 258.134 -250.225 283.239 -302.394 284.868C-334.629 285.873 -365.753 277.678 -395.309 269.107C-424.864 260.536 -454.922 251.267 -487.135 249.923C-519.347 248.58 -554.824 257.278 -569.384 276.342C-599.653 315.969 -570.885 354.884 -572.522 399.277L289.159 396.973Z" fill="#62A279"/>
<path opacity="0.76" d="M40.6533 396.08C48.6989 373.632 72.0701 354.141 102.196 344.752C132.72 335.243 167.394 336.031 200.777 335.258C234.16 334.485 269.825 331.28 295.012 315.91C312.274 305.402 322.511 290.392 336.741 277.821C371.108 247.455 431.067 232.564 485.007 241.008C535.96 248.978 579.79 275.532 631.929 277.288C664.156 278.354 695.265 269.663 724.806 260.574C754.346 251.485 784.397 241.676 816.594 240.31C848.792 238.944 884.254 248.078 898.814 268.274C929.067 310.303 900.315 351.507 901.951 398.55L40.6533 396.08Z" fill="#368973"/>
</g>
<g clip-path="url(#clip5_5077_2779)">
</g>
<g clip-path="url(#clip6_5077_2779)">
</g>
<g clip-path="url(#clip7_5077_2779)">
<path d="M221.341 398.309H137.658V386.593L179.5 367.35L221.341 386.593V398.309Z" fill="#FAE100"/>
<path d="M228.868 390.781L179.499 368.183L130.13 390.781V386.593L179.514 364.003L228.868 387.434V390.781Z" fill="#2D2D2D"/>
<path d="M186.945 377.512H181.091V387.554H186.945V377.512Z" fill="#2D2D2D"/>
<path d="M177.902 377.512H172.048V387.554H177.902V377.512Z" fill="#2D2D2D"/>
</g>
<g clip-path="url(#clip8_5077_2779)">
<path d="M267.905 314.752C270.724 331.129 278.527 346.238 290.251 358.016" stroke="#4C956C" stroke-width="1.84628" stroke-linecap="round" stroke-linejoin="round"/>
<path d="M234.798 315.209L239.46 312.096C243.272 313.442 246.858 315.356 250.098 317.774C247.924 314.963 245.751 312.155 243.579 309.349L253.149 302.921C255.202 303.612 257.13 304.63 258.857 305.937C258.728 303.86 258.377 301.802 257.809 299.8L269.212 292.144L273.92 295.635C274.189 293.496 274.061 291.326 273.542 289.233L281.612 283.775C285.781 289.983 287.312 297.593 285.87 304.93C284.428 312.267 280.13 318.731 273.922 322.899C267.714 327.067 260.104 328.599 252.767 327.157C245.43 325.714 238.966 321.417 234.798 315.209Z" fill="#DF564C"/>
<path d="M319.566 330.269C317.76 340.797 312.763 350.51 305.254 358.082" stroke="#4C956C" stroke-width="1.84628" stroke-linecap="round" stroke-linejoin="round"/>
<path d="M340.77 330.562L337.784 328.562C335.343 329.427 333.046 330.657 330.971 332.212C332.363 330.405 333.755 328.599 335.146 326.796L329.016 322.663C327.702 323.107 326.467 323.762 325.361 324.602C325.444 323.267 325.669 321.944 326.032 320.657L318.729 315.735L315.714 317.979C315.541 316.604 315.623 315.209 315.956 313.864L310.787 310.355C308.117 314.346 307.136 319.238 308.06 323.955C308.984 328.671 311.736 332.827 315.712 335.506C319.688 338.186 324.562 339.17 329.261 338.243C333.961 337.316 338.1 334.553 340.77 330.562Z" fill="#DF564C"/>
</g>
<g clip-path="url(#clip9_5077_2779)">
<path d="M192.408 424.045C184.722 407.173 191.89 386.931 204.416 374.128C216.942 361.324 234.309 356.115 251.241 354.561C268.173 353.008 285.21 354.794 302.171 353.811C368.39 350.013 427.756 305.537 493.487 295.901C523.385 291.558 553.891 294.536 582.386 304.577C631.057 321.689 673.589 358.727 723.859 368.514C754.353 374.458 785.777 369.91 816.511 374.037C847.245 378.165 880.065 392.103 891.743 424.045H192.408Z" fill="#1B6C4A"/>
</g>
<g clip-path="url(#clip10_5077_2779)">
<path d="M38.5876 448.752C37.2863 447.37 37.7844 445.656 38.9915 444.238C40.1986 442.82 42.2 441.743 44.3046 440.827C46.4092 439.912 48.6619 439.126 50.6544 438.135C52.6076 437.12 54.4346 435.879 56.0976 434.437C57.6593 433.091 59.176 431.659 61.5185 430.905C64.211 430.03 67.7785 430.322 70.0446 431.605C71.5434 432.467 72.4185 433.656 73.4641 434.747C75.7078 437.067 78.8041 439.01 81.2094 441.262C83.6147 443.515 85.3109 446.199 84.1936 448.828L38.5876 448.752Z" fill="#2C6347"/>
<path d="M-0.493683 458.198C-1.35079 457.301 -1.0232 456.156 -0.228922 455.223C0.565357 454.29 1.88467 453.576 3.27577 452.979C4.66688 452.382 6.14774 451.857 7.45808 451.184C8.74754 450.518 9.95274 449.7 11.048 448.748C12.0801 447.877 13.0808 446.921 14.638 446.423C16.4944 445.846 18.5019 446.006 20.2428 446.872C21.2345 447.437 21.8089 448.218 22.4865 448.94C23.9539 450.471 26.0047 451.75 27.5888 453.235C29.1728 454.72 30.2812 456.497 29.5588 458.221L-0.493683 458.198Z" fill="#407266"/>
<path d="M328.586 471.661C327.734 470.763 328.057 469.619 328.851 468.685C329.645 467.752 330.969 467.039 332.356 466.442C333.742 465.845 335.228 465.32 336.543 464.647C337.831 463.979 339.037 463.161 340.133 462.21C341.165 461.339 342.161 460.384 343.723 459.886C345.581 459.308 347.589 459.469 349.332 460.334C350.324 460.9 350.898 461.681 351.576 462.403C353.043 463.933 355.094 465.212 356.678 466.697C358.262 468.183 359.37 469.96 358.643 471.683L328.586 471.661Z" fill="#407266"/>
</g>
<g clip-path="url(#clip11_5077_2779)">
<path opacity="0.25" d="M302.976 237.09C304.282 231.085 302 216.015 296.604 213.118C293.867 211.721 290.76 211.222 287.724 211.691C284.687 212.16 281.875 213.573 279.687 215.73C279.762 206.393 274.133 196.794 265.27 193.852C256.406 190.91 245.201 196.389 243.504 205.568C241.395 199.871 234.656 196.689 228.667 197.702C222.677 198.715 217.686 203.264 215.037 208.72C212.388 214.176 211.825 220.451 212.23 226.507C210.597 225.335 208.636 224.707 206.626 224.711C204.616 224.716 202.658 225.352 201.03 226.531C199.402 227.71 198.186 229.372 197.555 231.28C196.923 233.189 196.909 235.247 197.512 237.165L302.976 237.09Z" fill="#97C5C7"/>
<path opacity="0.25" d="M100.147 194.265C102.144 185.116 98.6464 162.03 90.3907 157.594C86.2026 155.458 81.448 154.694 76.8016 155.412C72.1552 156.13 67.8529 158.293 64.5052 161.595C64.6253 147.335 56.0093 132.624 42.4474 128.121C28.8855 123.618 11.7436 132.002 9.11674 146.044C5.897 137.33 -4.39264 132.459 -13.579 134.035C-22.7654 135.612 -30.3757 142.516 -34.3985 150.855C-38.4212 159.193 -39.3069 168.8 -38.6839 178.068C-41.1831 176.281 -44.1808 175.324 -47.2535 175.333C-50.3262 175.341 -53.3184 176.316 -55.8073 178.118C-58.2961 179.92 -60.1558 182.458 -61.1234 185.374C-62.091 188.291 -62.1176 191.437 -61.1996 194.37L100.147 194.265Z" fill="#97C5C7"/>
</g>
</g>
<defs>
<clipPath id="clip0_5077_2779">
<rect width="360" height="523" fill="white"/>
</clipPath>
<clipPath id="clip1_5077_2779">
<rect width="1441" height="258.93" fill="white" transform="translate(-541 89.312)"/>
</clipPath>
<clipPath id="clip2_5077_2779">
<rect width="617.574" height="220.655" fill="white" transform="translate(-160.531 176)"/>
</clipPath>
<clipPath id="clip3_5077_2779">
<rect width="1441" height="171.119" fill="white" transform="translate(-541 226)"/>
</clipPath>
<clipPath id="clip4_5077_2779">
<rect width="1441" height="160.611" fill="white" transform="translate(-541 238.666)"/>
</clipPath>
<clipPath id="clip5_5077_2779">
<rect width="1314.91" height="139.597" fill="white" transform="translate(-414.912 261.181)"/>
</clipPath>
<clipPath id="clip6_5077_2779">
<rect width="1360.69" height="147.853" fill="white" transform="translate(-460.694 258.93)"/>
</clipPath>
<clipPath id="clip7_5077_2779">
<rect width="98.7386" height="34.3063" fill="white" transform="translate(130.13 364.003)"/>
</clipPath>
<clipPath id="clip8_5077_2779">
<rect width="1351.6" height="109.794" fill="white" transform="translate(-489.216 282.826)"/>
</clipPath>
<clipPath id="clip9_5077_2779">
<rect width="1432.74" height="139.597" fill="white" transform="translate(-541 294.204)"/>
</clipPath>
<clipPath id="clip10_5077_2779">
<rect width="360" height="46" fill="white" transform="translate(-1 425)"/>
</clipPath>
<clipPath id="clip11_5077_2779">
<rect width="593.34" height="110.265" fill="white" transform="translate(-290.005 126.899)"/>
</clipPath>
</defs>
</svg>
