<svg width="1440" height="583" viewBox="0 0 1440 583" fill="none" xmlns="http://www.w3.org/2000/svg">
<g clip-path="url(#clip0_5077_3491)">
<path d="M1440 392.522H-1V692.731H1440V392.522Z" fill="#1F4C48"/>
<g clip-path="url(#clip1_5077_3491)">
<path opacity="0.4" d="M134.094 218.942C134.094 290.534 122.911 348.572 30.897 348.572C-73.8007 348.572 -72.2996 290.534 -72.2996 218.942C-72.2996 147.35 -25.5872 89.312 31.4073 89.312C88.4019 89.312 134.094 147.35 134.094 218.942Z" fill="#71C6AC"/>
<path opacity="0.4" d="M237.989 257.264C237.989 304.607 230.588 342.988 169.744 342.988C100.501 342.988 101.499 304.607 101.499 257.264C101.499 209.921 132.39 171.539 170.119 171.539C207.848 171.539 237.989 209.921 237.989 257.264Z" fill="#71C6AC"/>
<path opacity="0.4" d="M1363.6 254.802C1363.6 286.924 1358.58 312.967 1317.29 312.967C1270.31 312.967 1270.98 286.924 1270.98 254.802C1270.98 222.68 1291.94 196.636 1317.51 196.636C1343.09 196.636 1363.6 222.68 1363.6 254.802Z" fill="#71C6AC"/>
<path opacity="0.4" d="M1511.86 236.789C1511.86 296.08 1502.61 344.114 1426.42 344.114C1339.74 344.114 1340.99 296.08 1340.99 236.789C1340.99 177.498 1379.66 129.465 1426.85 129.465C1474.04 129.465 1511.86 177.513 1511.86 236.789Z" fill="#71C6AC"/>
</g>
<g clip-path="url(#clip2_5077_3491)">
<path opacity="0.4" d="M382.516 396.655C375.762 368.211 380.835 332.741 391.845 311.149C402.855 289.556 418.173 280.738 433.079 278.171C447.984 275.604 462.995 278.554 477.937 276.917C536.253 270.515 588.534 195.531 646.429 179.282C672.608 171.935 699.536 176.971 724.716 193.917C767.578 222.767 805.022 285.196 849.303 301.707C876.164 311.719 903.835 304.049 930.899 311.014C957.963 317.978 986.76 342.423 997.043 396.273L382.516 396.655Z" fill="#01A991"/>
</g>
<g opacity="0.2" clip-path="url(#clip3_5077_3491)">
<path opacity="0.4" d="M882.363 365.845C875.608 347.787 880.682 325.271 891.692 311.567C902.702 297.862 918.02 292.271 932.925 290.642C947.831 289.014 962.841 290.883 977.784 289.839C1036.1 285.779 1088.38 238.188 1146.28 227.876C1172.45 223.216 1199.38 226.375 1224.56 237.168C1267.42 255.473 1304.87 295.1 1349.15 305.578C1376.01 311.935 1403.68 307.079 1430.75 311.484C1457.81 315.89 1486.61 331.418 1496.89 365.597L882.363 365.845Z" fill="#01A991"/>
<path opacity="0.4" d="M-69.2974 397.119C-76.0521 375.031 -70.9786 347.494 -59.9684 330.728C-48.9583 313.961 -33.6402 307.116 -18.7348 305.12C-3.82948 303.123 11.1809 305.42 26.1238 304.144C84.4393 299.176 136.721 240.958 194.616 228.341C220.794 222.637 247.723 226.548 272.903 239.704C315.765 262.1 353.208 310.576 397.489 323.395C424.35 331.17 452.022 325.219 479.086 330.622C506.149 336.026 534.947 355.007 545.229 396.818L-69.2974 397.119Z" fill="#01A991"/>
</g>
<g clip-path="url(#clip4_5077_3491)">
<path opacity="0.88" d="M829.159 396.973C821.113 375.786 797.727 357.398 767.564 348.527C737.025 339.558 702.336 340.271 668.945 339.573C635.555 338.875 599.897 335.82 574.665 321.313C557.403 311.383 547.158 297.236 532.921 285.37C498.54 256.715 438.55 242.666 384.588 250.629C333.62 258.134 289.775 283.239 237.606 284.868C205.371 285.873 174.247 277.678 144.691 269.107C115.136 260.536 85.0776 251.267 52.8652 249.923C20.6529 248.58 -14.8242 257.278 -29.3843 276.342C-59.6528 315.969 -30.8854 354.884 -32.5215 399.277L829.159 396.973Z" fill="#62A279"/>
<path opacity="0.76" d="M580.653 396.08C588.699 373.632 612.07 354.141 642.196 344.752C672.72 335.243 707.394 336.031 740.777 335.258C774.16 334.485 809.825 331.28 835.012 315.91C852.274 305.402 862.511 290.392 876.741 277.821C911.108 247.455 971.067 232.564 1025.01 241.008C1075.96 248.978 1119.79 275.532 1171.93 277.288C1204.16 278.354 1235.27 269.663 1264.81 260.574C1294.35 251.485 1324.4 241.676 1356.59 240.31C1388.79 238.944 1424.25 248.078 1438.81 268.274C1469.07 310.303 1440.31 351.507 1441.95 398.55L580.653 396.08Z" fill="#368973"/>
</g>
<g clip-path="url(#clip5_5077_3491)">
<path opacity="0.66" d="M1055.73 401.026C1048.98 382.968 1053.3 360.453 1064.31 346.748C1075.32 333.044 1090.64 327.452 1105.54 325.824C1120.45 324.195 1135.46 326.064 1150.4 325.02C1208.72 320.96 1261 273.37 1318.89 263.057C1345.07 258.397 1372 261.556 1397.18 272.349C1440.04 290.654 1477.49 330.282 1521.77 340.759C1548.63 347.116 1576.3 342.26 1603.36 346.665C1630.43 351.071 1659.23 366.599 1669.51 400.778L1055.73 401.026Z" fill="#309652"/>
<path opacity="0.65" d="M503.409 398.339C514.111 393.776 510.021 388.117 500.092 383.449C490.162 378.781 473.651 375.193 456.321 372.191C438.992 369.189 420.431 366.585 404.04 363.252C388.863 360.148 373.902 356.069 359.249 351.041C346.355 346.666 333.866 341.885 314.593 339.386C292.317 336.504 263.032 337.472 244.509 341.712C232.148 344.542 224.951 348.467 216.327 352.062C197.962 359.725 172.369 366.134 152.563 373.564C132.757 380.995 118.79 389.896 127.968 398.527L503.409 398.339Z" fill="#23473E"/>
</g>
<g clip-path="url(#clip6_5077_3491)">
<path opacity="0.54" d="M1470.83 362.922C1459.9 370.172 1437.19 376.904 1437.19 376.904C1445.84 372.101 1457.46 354.036 1462.34 345.9C1453.49 331.264 1441.57 318.718 1427.41 309.125C1416.36 326.964 1397.17 346.868 1397.17 346.868L1394.32 293.581C1376.4 288.405 1357.51 287.533 1339.19 291.037C1337.53 307.729 1335.89 334.815 1340.88 348.114C1340.88 348.114 1326.36 318.356 1320 296.433C1310.93 299.844 1302.31 304.364 1294.35 309.89C1297.94 318.896 1303.64 331.655 1308.36 335.603C1308.36 335.603 1294.75 325.576 1286.5 315.819C1269.98 329.44 1257.48 347.297 1250.33 367.478C1257.08 371.14 1272.78 378.803 1283.35 376.882C1283.35 376.882 1255.48 382.691 1246.74 379.749C1244.67 388.605 1243.62 397.671 1243.63 406.767H1480.53C1480.53 391.277 1476.27 376.476 1470.83 362.922Z" fill="#509F89"/>
<path opacity="0.66" d="M341.506 344.211C328.905 352.572 302.727 360.333 302.727 360.333C312.694 354.794 326.053 333.959 331.72 324.585C321.514 307.715 307.778 293.254 291.454 282.196C278.695 302.76 256.585 325.726 256.585 325.726L253.29 264.303C232.635 258.334 210.861 257.329 189.743 261.369C187.83 280.612 185.938 311.841 191.687 327.167C191.687 327.167 174.951 292.861 167.618 267.591C157.16 271.519 147.23 276.73 138.055 283.104C142.19 293.461 148.758 308.224 154.191 312.75C154.191 312.75 138.513 301.192 129.004 289.941C109.958 305.645 95.5398 326.23 87.2899 349.495C95.0578 353.721 113.175 362.554 125.356 360.34C125.356 360.34 93.219 367.027 83.1395 363.642C80.7521 373.847 79.5483 384.293 79.552 394.774H351.241C351.26 377.452 347.955 360.288 341.506 344.211Z" fill="#309652"/>
</g>
<g clip-path="url(#clip7_5077_3491)">
<path d="M761.341 398.309H677.658V386.593L719.5 367.35L761.341 386.593V398.309Z" fill="#FAE100"/>
<path d="M768.868 390.781L719.499 368.183L670.13 390.781V386.593L719.514 364.002L768.868 387.434V390.781Z" fill="#2D2D2D"/>
<path d="M726.945 377.512H721.091V387.554H726.945V377.512Z" fill="#2D2D2D"/>
<path d="M717.902 377.512H712.048V387.554H717.902V377.512Z" fill="#2D2D2D"/>
</g>
<g clip-path="url(#clip8_5077_3491)">
<path d="M1381.57 354.269C1379.76 364.797 1374.76 374.51 1367.25 382.082" stroke="#4C956C" stroke-width="1.84628" stroke-linecap="round" stroke-linejoin="round"/>
<path d="M1402.77 354.562L1399.78 352.562C1397.34 353.427 1395.05 354.657 1392.97 356.212C1394.36 354.405 1395.75 352.599 1397.15 350.796L1391.02 346.663C1389.7 347.107 1388.47 347.762 1387.36 348.602C1387.44 347.267 1387.67 345.944 1388.03 344.657L1380.73 339.735L1377.71 341.979C1377.54 340.604 1377.62 339.209 1377.96 337.864L1372.79 334.355C1370.12 338.346 1369.14 343.238 1370.06 347.955C1370.98 352.671 1373.74 356.827 1377.71 359.506C1381.69 362.186 1386.56 363.17 1391.26 362.243C1395.96 361.316 1400.1 358.553 1402.77 354.562Z" fill="#DF564C"/>
<path d="M1347.01 358.269C1348.81 368.797 1353.81 378.51 1361.32 386.082" stroke="#4C956C" stroke-width="1.84628" stroke-linecap="round" stroke-linejoin="round"/>
<path d="M1325.8 358.562L1328.79 356.562C1331.23 357.427 1333.53 358.657 1335.6 360.212C1334.21 358.405 1332.82 356.599 1331.43 354.796L1337.56 350.663C1338.87 351.107 1340.11 351.762 1341.21 352.602C1341.13 351.267 1340.91 349.944 1340.54 348.657L1347.85 343.735L1350.86 345.979C1351.03 344.604 1350.95 343.209 1350.62 341.864L1355.79 338.355C1358.46 342.346 1359.44 347.238 1358.51 351.955C1357.59 356.671 1354.84 360.827 1350.86 363.506C1346.89 366.186 1342.01 367.17 1337.31 366.243C1332.61 365.316 1328.47 362.553 1325.8 358.562Z" fill="#DF564C"/>
<path d="M807.905 314.752C810.724 331.129 818.527 346.238 830.251 358.016" stroke="#4C956C" stroke-width="1.84628" stroke-linecap="round" stroke-linejoin="round"/>
<path d="M774.798 315.209L779.46 312.096C783.272 313.442 786.858 315.356 790.098 317.774C787.924 314.963 785.751 312.155 783.579 309.349L793.149 302.921C795.202 303.612 797.13 304.63 798.857 305.937C798.728 303.86 798.377 301.802 797.809 299.8L809.211 292.144L813.92 295.635C814.189 293.496 814.061 291.326 813.542 289.233L821.612 283.775C825.78 289.983 827.312 297.593 825.87 304.93C824.427 312.267 820.13 318.731 813.922 322.899C807.714 327.067 800.104 328.599 792.767 327.157C785.43 325.714 778.966 321.417 774.798 315.209Z" fill="#DF564C"/>
<path d="M859.566 330.269C857.76 340.797 852.763 350.51 845.254 358.082" stroke="#4C956C" stroke-width="1.84628" stroke-linecap="round" stroke-linejoin="round"/>
<path d="M880.77 330.562L877.784 328.562C875.343 329.427 873.046 330.657 870.971 332.212C872.363 330.405 873.755 328.599 875.146 326.796L869.016 322.663C867.702 323.107 866.467 323.762 865.361 324.602C865.443 323.267 865.668 321.944 866.032 320.657L858.729 315.735L855.714 317.979C855.541 316.604 855.623 315.209 855.955 313.864L850.787 310.355C848.117 314.346 847.136 319.238 848.06 323.955C848.984 328.671 851.736 332.827 855.712 335.506C859.688 338.186 864.562 339.17 869.261 338.243C873.96 337.316 878.1 334.553 880.77 330.562Z" fill="#DF564C"/>
<path d="M116.566 330.269C114.76 340.797 109.763 350.51 102.254 358.082" stroke="#4C956C" stroke-width="1.84628" stroke-linecap="round" stroke-linejoin="round"/>
<path d="M137.77 330.562L134.784 328.562C132.343 329.427 130.046 330.657 127.971 332.212C129.363 330.405 130.755 328.599 132.146 326.796L126.016 322.663C124.702 323.107 123.467 323.762 122.361 324.602C122.444 323.267 122.669 321.944 123.032 320.657L115.729 315.735L112.714 317.979C112.541 316.604 112.623 315.209 112.956 313.864L107.787 310.355C105.117 314.346 104.136 319.238 105.06 323.955C105.984 328.671 108.736 332.827 112.712 335.506C116.688 338.186 121.562 339.17 126.261 338.243C130.961 337.316 135.1 334.553 137.77 330.562Z" fill="#DF564C"/>
<path d="M77.6272 302.823C79.9799 316.491 86.4925 329.1 96.2764 338.93" stroke="#4C956C" stroke-width="1.84628" stroke-linecap="round" stroke-linejoin="round"/>
<path d="M49.9967 303.204L53.8876 300.606C57.0689 301.73 60.0621 303.327 62.766 305.345C60.9516 302.999 59.1381 300.655 57.3253 298.314L65.3125 292.949C67.0257 293.525 68.6343 294.375 70.0757 295.466C69.9683 293.732 69.675 292.015 69.2011 290.344L78.7176 283.954L82.647 286.868C82.872 285.083 82.7651 283.272 82.3319 281.526L89.0669 276.97C92.5457 282.151 93.8239 288.502 92.6202 294.625C91.4166 300.749 87.8297 306.143 82.6487 309.622C77.4676 313.101 71.1168 314.379 64.9934 313.175C58.87 311.972 53.4755 308.385 49.9967 303.204Z" fill="#DF564C"/>
</g>
<g clip-path="url(#clip9_5077_3491)">
<path d="M206.143 433.456C213.13 425.125 210.466 414.768 203.982 406.234C197.497 397.701 186.72 391.171 175.402 385.655C164.084 380.139 151.971 375.403 141.268 369.309C130.055 362.922 120.591 355.146 111.998 346.996C103.584 339.003 95.4263 330.267 82.8476 325.703C68.295 320.45 49.1792 322.199 37.0658 329.944C28.9902 335.115 24.307 342.298 18.663 348.872C6.72225 362.877 -10.0069 374.585 -22.9233 388.177C-35.8398 401.769 -44.9736 418.04 -38.977 433.801L206.143 433.456Z" fill="#1B6C4A"/>
<path d="M732.408 424.045C724.722 407.173 731.89 386.931 744.416 374.128C756.942 361.324 774.309 356.115 791.241 354.561C808.173 353.008 825.21 354.794 842.171 353.811C908.39 350.013 967.756 305.537 1033.49 295.901C1063.39 291.558 1093.89 294.536 1122.39 304.577C1171.06 321.689 1213.59 358.727 1263.86 368.514C1294.35 374.458 1325.78 369.91 1356.51 374.037C1387.24 378.165 1420.07 392.103 1431.74 424.045H732.408Z" fill="#1B6C4A"/>
</g>
<g clip-path="url(#clip10_5077_3491)">
<path d="M1367.53 486.195C1370.37 482.818 1369.28 478.615 1366.65 475.155C1364.02 471.695 1359.65 469.046 1355.06 466.809C1350.48 464.573 1345.55 462.644 1341.22 460.175C1336.9 457.656 1332.92 454.616 1329.35 451.123C1325.93 447.881 1322.59 444.369 1317.52 442.485C1311.62 440.346 1303.87 441.066 1298.96 444.211C1295.69 446.305 1293.78 449.217 1291.49 451.889C1286.64 457.57 1279.85 462.321 1274.61 467.83C1269.38 473.339 1265.67 479.936 1268.13 486.338L1367.53 486.195Z" fill="#2C6347"/>
<path d="M130.986 480.986C128.81 478.675 129.643 475.808 131.662 473.436C133.681 471.064 137.028 469.263 140.548 467.732C144.068 466.201 147.836 464.888 151.168 463.229C154.435 461.532 157.49 459.456 160.272 457.045C162.883 454.793 165.42 452.399 169.338 451.138C173.841 449.674 179.808 450.162 183.598 452.309C186.105 453.75 187.568 455.739 189.317 457.562C193.069 461.443 198.248 464.692 202.271 468.46C206.294 472.228 209.131 476.716 207.262 481.114L130.986 480.986Z" fill="#2C6347"/>
<path d="M65.6232 496.785C64.1897 495.284 64.7376 493.37 66.066 491.809C67.3944 490.248 69.6009 489.054 71.9276 488.056C74.2542 487.058 76.7309 486.18 78.9224 485.054C81.079 483.94 83.0947 482.571 84.9266 480.979C86.6528 479.523 88.3264 477.924 90.9307 477.091C94.0355 476.125 97.3931 476.394 100.305 477.841C101.963 478.787 102.924 480.093 104.057 481.301C106.512 483.861 109.941 486 112.591 488.484C115.24 490.968 117.094 493.94 115.886 496.822L65.6232 496.785Z" fill="#407266"/>
<path d="M1359.91 519.3C1358.48 517.799 1359.02 515.886 1360.35 514.325C1361.68 512.763 1363.9 511.57 1366.21 510.572C1368.53 509.574 1371.02 508.696 1373.22 507.57C1375.37 506.454 1377.39 505.086 1379.22 503.495C1380.95 502.038 1382.61 500.44 1385.23 499.607C1388.33 498.641 1391.69 498.91 1394.61 500.357C1396.27 501.303 1397.23 502.609 1398.36 503.817C1400.81 506.376 1404.24 508.515 1406.89 511C1409.54 513.484 1411.4 516.456 1410.18 519.338L1359.91 519.3Z" fill="#407266"/>
</g>
<g clip-path="url(#clip11_5077_3491)">
<path opacity="0.25" d="M766.976 203.09C768.282 197.085 766 182.015 760.604 179.118C757.867 177.721 754.76 177.222 751.724 177.691C748.687 178.16 745.875 179.573 743.687 181.73C743.762 172.393 738.133 162.794 729.27 159.852C720.406 156.91 709.201 162.389 707.505 171.568C705.396 165.871 698.656 162.689 692.667 163.702C686.678 164.715 681.687 169.264 679.037 174.72C676.388 180.176 675.825 186.451 676.23 192.507C674.597 191.335 672.637 190.707 670.626 190.711C668.616 190.716 666.658 191.352 665.03 192.531C663.402 193.71 662.186 195.372 661.555 197.28C660.924 199.189 660.909 201.247 661.513 203.165L766.976 203.09Z" fill="#97C5C7"/>
<path opacity="0.25" d="M564.147 160.265C566.144 151.116 562.646 128.03 554.391 123.594C550.203 121.458 545.448 120.694 540.802 121.412C536.155 122.13 531.853 124.293 528.505 127.595C528.625 113.335 520.009 98.6244 506.447 94.1213C492.885 89.6182 475.744 98.0015 473.117 112.044C469.897 103.33 459.607 98.4593 450.421 100.035C441.235 101.612 433.624 108.516 429.602 116.855C425.579 125.193 424.693 134.8 425.316 144.068C422.817 142.281 419.819 141.324 416.746 141.333C413.674 141.341 410.682 142.316 408.193 144.118C405.704 145.92 403.844 148.458 402.877 151.374C401.909 154.291 401.882 157.437 402.8 160.37L564.147 160.265Z" fill="#97C5C7"/>
<path opacity="0.25" d="M1264.48 153.63C1265.4 151.499 1263.79 146.125 1259.97 145.089C1256.15 144.054 1251.08 144.459 1248.08 146.027C1248.13 142.695 1244.17 139.273 1237.94 138.23C1231.7 137.186 1223.82 139.13 1222.61 142.402C1221.11 140.376 1216.39 139.243 1212.18 139.603C1207.97 139.963 1204.46 141.584 1202.59 143.528C1201.79 144.354 1201.19 145.358 1200.85 146.459C1200.5 147.56 1200.43 148.726 1200.62 149.863C1198.07 149.041 1195.32 149.041 1192.76 149.863C1190.51 150.696 1189.45 152.294 1190.29 153.615L1264.48 153.63Z" fill="#97C5C7"/>
</g>
</g>
<defs>
<clipPath id="clip0_5077_3491">
<rect width="1441" height="583" fill="white" transform="translate(-1)"/>
</clipPath>
<clipPath id="clip1_5077_3491">
<rect width="1441" height="258.93" fill="white" transform="translate(-1 89.312)"/>
</clipPath>
<clipPath id="clip2_5077_3491">
<rect width="617.574" height="220.655" fill="white" transform="translate(379.469 176)"/>
</clipPath>
<clipPath id="clip3_5077_3491">
<rect width="1441" height="171.119" fill="white" transform="translate(-1 226)"/>
</clipPath>
<clipPath id="clip4_5077_3491">
<rect width="1441" height="160.611" fill="white" transform="translate(-1 238.666)"/>
</clipPath>
<clipPath id="clip5_5077_3491">
<rect width="1314.91" height="139.597" fill="white" transform="translate(125.088 261.181)"/>
</clipPath>
<clipPath id="clip6_5077_3491">
<rect width="1360.69" height="147.853" fill="white" transform="translate(79.3057 258.93)"/>
</clipPath>
<clipPath id="clip7_5077_3491">
<rect width="98.7386" height="34.3063" fill="white" transform="translate(670.13 364.002)"/>
</clipPath>
<clipPath id="clip8_5077_3491">
<rect width="1351.6" height="109.794" fill="white" transform="translate(50.7842 282.826)"/>
</clipPath>
<clipPath id="clip9_5077_3491">
<rect width="1432.74" height="139.597" fill="white" transform="translate(-1 294.204)"/>
</clipPath>
<clipPath id="clip10_5077_3491">
<rect width="1345.79" height="78.077" fill="white" transform="translate(64.7764 441.261)"/>
</clipPath>
<clipPath id="clip11_5077_3491">
<rect width="1091" height="110" fill="white" transform="translate(174 93)"/>
</clipPath>
</defs>
</svg>
