<svg width="107" height="44" viewBox="0 0 107 44" fill="none" xmlns="http://www.w3.org/2000/svg">
<path opacity="0.25" d="M105.976 44.0895C107.282 38.0854 105 23.0149 99.6039 20.1179C96.8671 18.7214 93.7601 18.2222 90.7236 18.691C87.6871 19.1598 84.8753 20.5729 82.6871 22.7297C82.7622 13.3932 77.1333 3.79406 68.2697 0.852023C59.406 -2.09002 48.2007 3.38877 46.5046 12.5676C44.3956 6.87119 37.6559 3.689 31.6667 4.7022C25.6776 5.7154 20.6866 10.2636 18.0373 15.7198C15.3879 21.1761 14.825 27.4505 15.2303 33.5072C13.5971 32.3352 11.6366 31.7069 9.62642 31.7112C7.61625 31.7155 5.65841 32.3522 4.03027 33.5312C2.40213 34.7102 1.18624 36.3716 0.554894 38.28C-0.0764463 40.1885 -0.0912305 42.2472 0.512614 44.1646L105.976 44.0895Z" fill="#97C5C7"/>
</svg>
