<svg width="1347" height="79" viewBox="0 0 1347 79" fill="none" xmlns="http://www.w3.org/2000/svg">
<g clip-path="url(#clip0_2421_49203)">
<path d="M1303.53 45.1952C1306.36 41.8179 1305.28 37.6149 1302.65 34.155C1300.02 30.6951 1295.65 28.0458 1291.06 25.8092C1286.48 23.5727 1281.55 21.6439 1277.21 19.1747C1272.9 16.6557 1268.92 13.6158 1265.35 10.1234C1261.93 6.88113 1258.59 3.36869 1253.52 1.48488C1247.62 -0.654106 1239.87 0.0663845 1234.96 3.21107C1231.69 5.30502 1229.78 8.21703 1227.49 10.8889C1222.64 16.5703 1215.85 21.3212 1210.61 26.83C1205.37 32.3388 1201.67 38.9359 1204.13 45.3378L1303.53 45.1952Z" fill="#2C6347"/>
<path d="M66.9863 39.9863C64.8098 37.6747 65.6429 34.8077 67.6618 32.4361C69.6807 30.0644 73.028 28.2632 76.548 26.7321C80.0679 25.201 83.8355 23.8876 87.1678 22.229C90.4346 20.532 93.4903 18.4562 96.2716 16.0447C98.8835 13.7931 101.42 11.3989 105.338 10.1381C109.841 8.67454 115.808 9.16238 119.598 11.3089C122.105 12.7499 123.568 14.7388 125.317 16.5625C129.069 20.4427 134.248 23.6925 138.271 27.4601C142.294 31.2277 145.131 35.7158 143.262 40.1139L66.9863 39.9863Z" fill="#2C6347"/>
<path d="M1.62318 55.7846C0.189682 54.2835 0.737565 52.3697 2.06599 50.8086C3.39441 49.2475 5.60094 48.0542 7.92755 47.056C10.2542 46.0578 12.7309 45.1797 14.9224 44.0539C17.079 42.9396 19.0947 41.5714 20.9266 39.9786C22.6528 38.5226 24.3264 36.924 26.9307 36.0909C30.0355 35.1253 33.3931 35.3941 36.3047 36.8414C37.9634 37.7871 38.9241 39.093 40.0573 40.3013C42.5116 42.8606 45.9414 44.9996 48.5908 47.4838C51.2401 49.9681 53.0939 52.9401 51.8856 55.8221L1.62318 55.7846Z" fill="#407266"/>
<path d="M1295.91 78.3005C1294.48 76.7994 1295.02 74.8856 1296.35 73.3245C1297.68 71.7634 1299.9 70.5701 1302.21 69.5719C1304.53 68.5737 1307.02 67.6956 1309.22 66.5698C1311.37 65.4536 1313.39 64.0856 1315.22 62.4945C1316.95 61.0385 1318.61 59.4399 1321.23 58.6068C1324.33 57.6415 1327.69 57.9103 1330.61 59.3573C1332.27 60.303 1333.23 61.6089 1334.36 62.8172C1336.81 65.3765 1340.24 67.5155 1342.89 69.9997C1345.54 72.4839 1347.4 75.456 1346.18 78.338L1295.91 78.3005Z" fill="#407266"/>
</g>
<defs>
<clipPath id="clip0_2421_49203">
<rect width="1345.79" height="78.077" fill="white" transform="translate(0.776367 0.26123)"/>
</clipPath>
</defs>
</svg>
