<svg width="1361" height="149" viewBox="0 0 1361 149" fill="none" xmlns="http://www.w3.org/2000/svg">
<g clip-path="url(#clip0_2421_49192)">
<path opacity="0.54" d="M1391.83 104.922C1380.9 112.172 1358.19 118.904 1358.19 118.904C1366.84 114.101 1378.46 96.0356 1383.34 87.9C1374.49 73.2636 1362.57 60.7177 1348.41 51.1245C1337.36 68.9643 1318.17 88.8682 1318.17 88.8682L1315.32 35.5812C1297.4 30.4047 1278.51 29.5329 1260.19 33.0369C1258.53 49.7285 1256.9 76.8148 1261.88 90.114C1261.88 90.114 1247.36 60.3559 1241 38.4331C1231.93 41.8435 1223.31 46.3635 1215.35 51.89C1218.94 60.8962 1224.65 73.6551 1229.36 77.6028C1229.36 77.6028 1215.75 67.5759 1207.5 57.8191C1190.98 71.4401 1178.48 89.2966 1171.33 109.477C1178.08 113.14 1193.78 120.803 1204.35 118.881C1204.35 118.881 1176.48 124.691 1167.74 121.748C1165.67 130.605 1164.62 139.671 1164.63 148.767H1401.53C1401.53 133.276 1397.27 118.476 1391.83 104.922Z" fill="#509F89"/>
<path opacity="0.66" d="M262.506 86.2114C249.905 94.5722 223.727 102.333 223.727 102.333C233.694 96.7938 247.053 75.9593 252.719 66.5853C242.514 49.7151 228.778 35.254 212.454 24.1959C199.695 44.7602 177.585 67.7261 177.585 67.7261L174.29 6.30348C153.634 0.334101 131.861 -0.671384 110.743 3.36894C108.829 22.6123 106.938 53.8415 112.687 69.1671C112.687 69.1671 95.9505 34.8608 88.6179 9.59077C78.1596 13.5186 68.2293 18.7295 59.0549 25.104C63.1902 35.4612 69.7573 50.224 75.1911 54.7496C75.1911 54.7496 59.5127 43.1916 50.0036 31.9413C30.9582 47.6449 16.5396 68.23 8.28963 91.4951C16.0575 95.7206 34.1751 104.554 46.3561 102.34C46.3561 102.34 14.2188 109.027 4.13926 105.642C1.75182 115.847 0.548059 126.293 0.551766 136.774H272.24C272.259 119.452 268.955 102.288 262.506 86.2114Z" fill="#309652"/>
</g>
<defs>
<clipPath id="clip0_2421_49192">
<rect width="1360.69" height="147.853" fill="white" transform="translate(0.305664 0.929688)"/>
</clipPath>
</defs>
</svg>
