<svg width="1315" height="140" viewBox="0 0 1315 140" fill="none" xmlns="http://www.w3.org/2000/svg">
<g clip-path="url(#clip0_2421_49189)">
<path opacity="0.66" d="M930.731 140.026C923.977 121.968 928.3 99.4526 939.31 85.7481C950.32 72.0436 965.638 66.4522 980.543 64.8236C995.449 63.195 1010.46 65.0638 1025.4 64.0205C1083.72 59.9602 1136 12.3697 1193.89 2.05753C1220.07 -2.6032 1247 0.556493 1272.18 11.349C1315.04 29.6542 1352.49 69.2817 1396.77 79.7589C1423.63 86.1159 1451.3 81.26 1478.36 85.6656C1505.43 90.0711 1534.23 105.599 1544.51 139.778L930.731 140.026Z" fill="#309652"/>
<path opacity="0.65" d="M378.409 137.339C389.112 132.776 385.021 127.117 375.092 122.449C365.162 117.781 348.651 114.193 331.321 111.191C313.992 108.189 295.432 105.585 279.04 102.252C263.863 99.148 248.902 95.0692 234.249 90.0413C221.355 85.6658 208.866 80.8849 189.593 78.3857C167.318 75.5037 138.032 76.4719 119.509 80.7123C107.148 83.5418 99.9509 87.467 91.3274 91.062C72.9621 98.7248 47.3694 105.134 27.5631 112.564C7.75689 119.995 -6.21031 128.896 2.96856 137.527L378.409 137.339Z" fill="#23473E"/>
</g>
<defs>
<clipPath id="clip0_2421_49189">
<rect width="1314.91" height="139.597" fill="white" transform="translate(0.0878906 0.181152)"/>
</clipPath>
</defs>
</svg>
