<svg width="1440" height="162" viewBox="0 0 1440 162" fill="none" xmlns="http://www.w3.org/2000/svg">
<g clip-path="url(#clip0_2421_49186)">
<path opacity="0.88" d="M829.159 158.973C821.113 137.786 797.727 119.398 767.564 110.527C737.025 101.558 702.336 102.271 668.945 101.573C635.555 100.875 599.897 97.8205 574.665 83.3129C557.403 73.3835 547.158 59.2362 532.921 47.3705C498.539 18.7156 438.55 4.66587 384.588 12.6289C333.62 20.1341 289.775 45.239 237.606 46.8676C205.371 47.8733 174.247 39.6777 144.691 31.1067C115.136 22.5358 85.0775 13.2668 52.8651 11.9234C20.6528 10.58 -14.8244 19.2785 -29.3845 38.3417C-59.653 77.9692 -30.8855 116.884 -32.5216 161.277L829.159 158.973Z" fill="#62A279"/>
<path opacity="0.76" d="M580.653 158.08C588.699 135.632 612.07 116.141 642.196 106.752C672.72 97.2432 707.394 98.0312 740.777 97.2582C774.16 96.4852 809.825 93.2804 835.012 77.9098C852.274 67.4025 862.511 52.3921 876.741 39.8208C911.108 9.45477 971.067 -5.43558 1025.01 3.00778C1075.96 10.9783 1119.79 37.5317 1171.93 39.288C1204.16 40.3537 1235.27 31.6627 1264.81 22.5739C1294.35 13.4851 1324.4 3.67575 1356.59 2.30981C1388.79 0.943858 1424.25 10.0777 1438.81 30.2742C1469.07 72.3034 1440.31 113.507 1441.95 160.55L580.653 158.08Z" fill="#368973"/>
</g>
<defs>
<clipPath id="clip0_2421_49186">
<rect width="1441" height="160.611" fill="white" transform="translate(-1 0.665588)"/>
</clipPath>
</defs>
</svg>
