<svg width="75" height="17" viewBox="0 0 75 17" fill="none" xmlns="http://www.w3.org/2000/svg">
<path opacity="0.25" d="M74.4752 16.6303C75.3984 14.4988 73.7923 9.12506 69.9721 8.08934C66.1519 7.05362 61.0784 7.4589 58.0763 9.02749C58.1289 5.69518 54.1736 2.2728 47.9368 1.22958C41.7 0.186355 33.8195 2.1302 32.6112 5.40247C31.1101 3.37607 26.3894 2.24278 22.1789 2.60303C17.9685 2.96328 14.4561 4.58441 12.5948 6.52825C11.7895 7.35358 11.1909 8.35771 10.8478 9.45861C10.5048 10.5595 10.427 11.726 10.6209 12.8627C8.06601 12.041 5.31784 12.041 2.76295 12.8627C0.511385 13.6957 -0.554345 15.2944 0.286238 16.6153L74.4752 16.6303Z" fill="#97C5C7"/>
</svg>
