<svg width="1440" height="260" viewBox="0 0 1440 260" fill="none" xmlns="http://www.w3.org/2000/svg">
<g clip-path="url(#clip0_2421_49176)">
<path opacity="0.4" d="M134.094 129.942C134.094 201.534 122.911 259.572 30.897 259.572C-73.8007 259.572 -72.2996 201.534 -72.2996 129.942C-72.2996 58.3498 -25.5872 0.312012 31.4073 0.312012C88.4019 0.312012 134.094 58.3498 134.094 129.942Z" fill="#71C6AC"/>
<path opacity="0.4" d="M237.989 168.264C237.989 215.607 230.588 253.988 169.744 253.988C100.501 253.988 101.499 215.607 101.499 168.264C101.499 120.921 132.39 82.5392 170.119 82.5392C207.848 82.5392 237.989 120.921 237.989 168.264Z" fill="#71C6AC"/>
<path opacity="0.4" d="M1363.6 165.802C1363.6 197.924 1358.58 223.967 1317.29 223.967C1270.31 223.967 1270.98 197.924 1270.98 165.802C1270.98 133.68 1291.94 107.636 1317.51 107.636C1343.08 107.636 1363.6 133.68 1363.6 165.802Z" fill="#71C6AC"/>
<path opacity="0.4" d="M1511.86 147.789C1511.86 207.08 1502.61 255.114 1426.42 255.114C1339.74 255.114 1340.99 207.08 1340.99 147.789C1340.99 88.4982 1379.66 40.4648 1426.85 40.4648C1474.04 40.4648 1511.86 88.5132 1511.86 147.789Z" fill="#71C6AC"/>
</g>
<defs>
<clipPath id="clip0_2421_49176">
<rect width="1441" height="258.93" fill="white" transform="translate(-1 0.312012)"/>
</clipPath>
</defs>
</svg>
