<svg width="1432" height="140" viewBox="0 0 1432 140" fill="none" xmlns="http://www.w3.org/2000/svg">
<g clip-path="url(#clip0_2421_49200)">
<path d="M206.143 139.456C213.13 131.125 210.466 120.768 203.982 112.234C197.497 103.701 186.72 97.1714 175.402 91.6551C164.084 86.1387 151.971 81.403 141.268 75.3088C130.055 68.9218 120.591 61.1464 111.998 52.9958C103.584 45.0027 95.4263 36.2667 82.8476 31.7035C68.295 26.4498 49.1792 28.1986 37.0658 35.9439C28.9902 41.115 24.307 48.2975 18.663 54.8721C6.72225 68.8768 -10.0069 80.5849 -22.9233 94.1769C-35.8398 107.769 -44.9736 124.04 -38.977 139.801L206.143 139.456Z" fill="#1B6C4A"/>
<path d="M732.408 130.045C724.722 113.173 731.89 92.9314 744.416 80.1275C756.942 67.3236 774.309 62.115 791.241 60.5615C808.173 59.0079 825.21 60.7941 842.171 59.8109C908.39 56.0133 967.756 11.5374 1033.49 1.90075C1063.39 -2.44164 1093.89 0.53554 1122.39 10.5768C1171.06 27.6886 1213.59 64.7268 1263.86 74.5136C1294.35 80.4578 1325.78 75.9096 1356.51 80.0375C1387.24 84.1653 1420.07 98.1025 1431.74 130.045H732.408Z" fill="#1B6C4A"/>
</g>
<defs>
<clipPath id="clip0_2421_49200">
<rect width="1432.74" height="139.597" fill="white" transform="translate(-1 0.204102)"/>
</clipPath>
</defs>
</svg>
