<svg width="1440" height="172" viewBox="0 0 1440 172" fill="none" xmlns="http://www.w3.org/2000/svg">
<g opacity="0.2" clip-path="url(#clip0_2421_49183)">
<path opacity="0.4" d="M882.363 139.845C875.608 121.787 880.682 99.2714 891.692 85.5669C902.702 71.8624 918.02 66.271 932.925 64.6424C947.831 63.0138 962.841 64.8825 977.784 63.8393C1036.1 59.779 1088.38 12.1885 1146.28 1.87632C1172.45 -2.78442 1199.38 0.375279 1224.56 11.1678C1267.42 29.473 1304.87 69.1005 1349.15 79.5777C1376.01 85.9347 1403.68 81.0788 1430.75 85.4843C1457.81 89.8899 1486.61 105.418 1496.89 139.597L882.363 139.845Z" fill="#01A991"/>
<path opacity="0.4" d="M-69.2974 171.119C-76.0521 149.031 -70.9786 121.494 -59.9684 104.728C-48.9583 87.961 -33.6402 81.1162 -18.7348 79.1199C-3.82948 77.1235 11.1809 79.4201 26.1238 78.1442C84.4393 73.1757 136.721 14.9578 194.616 2.34156C220.794 -3.36239 247.723 0.54783 272.903 13.7045C315.765 36.1 353.208 84.5761 397.489 97.395C424.35 105.17 452.022 99.2188 479.086 104.623C506.149 110.026 534.947 129.007 545.229 170.818L-69.2974 171.119Z" fill="#01A991"/>
</g>
<defs>
<clipPath id="clip0_2421_49183">
<rect width="1441" height="171.119" fill="white" transform="translate(-1)"/>
</clipPath>
</defs>
</svg>
